<svg t="1710664258523" class="icon" viewBox="0 0 1024 1024" version="1.1" xmlns="http://www.w3.org/2000/svg" p-id="1820" data-spm-anchor-id="a313x.search_index.0.i3.5b823a81sgwoIV" width="16" height="16"><path d="M274.56 639.04l-0.544 188.64a6.848 6.848 0 0 1-10.336 5.952l-164.256-94.816A6.752 6.752 0 0 1 96 732.8l0.512-188.672c0-5.344 5.76-8.64 10.336-5.952l164.256 94.816c2.144 1.248 3.456 3.52 3.424 5.984zM275.264 393.6l-0.512 188.64a6.848 6.848 0 0 1-10.368 5.952L100.16 493.344a6.752 6.752 0 0 1-3.456-5.984l0.512-188.672c0-5.312 5.792-8.608 10.368-5.92l164.224 94.816c2.144 1.216 3.456 3.52 3.456 5.984zM488.192 762.368l-0.512 188.672a6.848 6.848 0 0 1-10.336 5.92l-164.256-94.816a6.752 6.752 0 0 1-3.424-5.984l0.512-188.672c0-5.312 5.76-8.608 10.336-5.952l164.256 94.848c2.112 1.248 3.424 3.52 3.424 5.984zM738.4 639.04l0.512 188.64c0 5.344 5.792 8.64 10.336 5.952l164.256-94.816a6.752 6.752 0 0 0 3.424-5.984l-0.512-188.672a6.848 6.848 0 0 0-10.336-5.952l-164.256 94.816a6.848 6.848 0 0 0-3.424 5.984z" fill="#f4ea2a" p-id="1821" data-spm-anchor-id="a313x.search_index.0.i1.5b823a81sgwoIV" class=""></path><path d="M737.696 393.6l0.512 188.64c0 5.312 5.76 8.608 10.336 5.952l164.256-94.848a6.752 6.752 0 0 0 3.424-5.984l-0.512-188.672a6.848 6.848 0 0 0-10.336-5.92l-164.256 94.816a6.848 6.848 0 0 0-3.424 5.984z" fill="#21dcd9" p-id="1822" data-spm-anchor-id="a313x.search_index.0.i5.5b823a81sgwoIV" class="selected"></path><path d="M524.736 762.368l0.512 188.672c0 5.312 5.792 8.608 10.368 5.92l164.224-94.816a6.752 6.752 0 0 0 3.456-5.984l-0.512-188.672a6.848 6.848 0 0 0-10.368-5.952l-164.224 94.848a6.976 6.976 0 0 0-3.456 5.984zM510.88 234.496l163.104-94.816a6.912 6.912 0 0 0 0-11.936L509.76 32.928a6.976 6.976 0 0 0-6.912 0l-163.136 94.816a6.912 6.912 0 0 0 0 11.936l164.256 94.816c2.112 1.28 4.8 1.28 6.912 0zM298.592 357.888L461.76 263.04a6.912 6.912 0 0 0 0-11.936L297.472 156.32a6.976 6.976 0 0 0-6.912 0L127.424 251.136a6.912 6.912 0 0 0 0 11.936l164.256 94.816c2.144 1.216 4.8 1.216 6.912 0z" fill="#f4ea2a" p-id="1823" data-spm-anchor-id="a313x.search_index.0.i4.5b823a81sgwoIV" class=""></path><path d="M721.6 366.944l169.024-98.208a7.168 7.168 0 0 0 0-12.384l-170.176-98.24a7.168 7.168 0 0 0-7.168 0l-169.024 98.176a7.168 7.168 0 0 0 0 12.416l170.176 98.24c2.24 1.28 4.96 1.28 7.168 0z m-18.24 26.624l-0.48 188.672a6.848 6.848 0 0 1-10.336 5.952l-164.256-94.848a6.752 6.752 0 0 1-3.424-5.984l0.512-188.672c0-5.312 5.76-8.608 10.336-5.92l164.256 94.816c2.112 1.216 3.424 3.52 3.424 5.984z" fill="#21dcd9" p-id="1824" data-spm-anchor-id="a313x.search_index.0.i6.5b823a81sgwoIV" class="selected"></path><path d="M309.568 393.6l0.512 188.64c0 5.312 5.76 8.608 10.336 5.952l164.256-94.848a6.752 6.752 0 0 0 3.424-5.984l-0.512-188.672a6.848 6.848 0 0 0-10.336-5.92L312.96 387.584a6.848 6.848 0 0 0-3.424 5.984zM510.88 724l163.104-94.816a6.912 6.912 0 0 0 0-11.936l-164.224-94.816a6.976 6.976 0 0 0-6.912 0l-163.136 94.816a6.912 6.912 0 0 0 0 11.936l164.256 94.816c2.144 1.248 4.768 1.248 6.912 0z" fill="#f4ea2a" p-id="1825" data-spm-anchor-id="a313x.search_index.0.i2.5b823a81sgwoIV" class=""></path></svg>
